<!DOCTYPE svg PUBLIC "-//W3C//DTD SVG 1.1//EN" "http://www.w3.org/Graphics/SVG/1.1/DTD/svg11.dtd">
<!-- Uploaded to: SVG Repo, www.svgrepo.com, Transformed by: SVG Repo Mixer Tools -->
<svg height="800px" width="800px" version="1.1" id="Capa_1" xmlns="http://www.w3.org/2000/svg" xmlns:xlink="http://www.w3.org/1999/xlink" viewBox="0 0 500.144 500.144" xml:space="preserve" fill="#000000">
<g id="SVGRepo_bgCarrier" stroke-width="0"/>
<g id="SVGRepo_tracerCarrier" stroke-linecap="round" stroke-linejoin="round"/>
<g id="SVGRepo_iconCarrier"> <g id="measuring-cup"> <path style="fill:#000100;" d="M449.121,44.382H27.959c-10.139,0-19.496,5.502-24.403,14.323c-4.939,8.84-4.72,19.661,0.576,28.286 l59.324,96.48v177.972c0,52.003,42.316,94.318,94.328,94.318H306.71c52.007,0,94.323-42.315,94.323-94.318V248.673 c7.034,19.773,25.935,33.965,48.088,33.965c28.13,0,51.023-22.88,51.023-51.023V95.405 C500.144,67.267,477.251,44.382,449.121,44.382z M466.81,231.614c0,9.75-7.935,17.693-17.689,17.693 c-9.75,0-17.685-7.943-17.685-17.693V129.878c0-9.21-7.463-16.664-16.665-16.664h-30.403c-9.206,0-16.665,7.454-16.665,16.664 v231.565c0,33.627-27.361,60.983-60.993,60.983H157.783c-33.636,0-60.993-27.356-60.993-60.983v-182.69 c0-3.074-0.855-6.102-2.465-8.722L37.553,77.716h411.567c9.754,0,17.689,7.943,17.689,17.689V231.614z"/> <path style="fill:#000100;" d="M142.303,162.577h49.999c6.901,0,12.499-5.602,12.499-12.499c0-6.901-5.598-12.503-12.499-12.503 h-49.999c-6.901,0-12.498,5.602-12.498,12.503C129.804,156.975,135.402,162.577,142.303,162.577z"/> <path style="fill:#000100;" d="M142.303,295.905h49.999c6.901,0,12.499-5.598,12.499-12.5c0-6.9-5.598-12.502-12.499-12.502 h-49.999c-6.901,0-12.498,5.602-12.498,12.502C129.804,290.308,135.402,295.905,142.303,295.905z"/> <path style="fill:#000100;" d="M208.967,337.571h-66.664c-6.901,0-12.498,5.598-12.498,12.498c0,6.901,5.598,12.499,12.498,12.499 h66.664c6.901,0,12.498-5.598,12.498-12.499C221.465,343.169,215.868,337.571,208.967,337.571z"/> <path style="fill:#000100;" d="M208.967,204.239h-66.664c-6.901,0-12.498,5.602-12.498,12.503c0,6.901,5.598,12.499,12.498,12.499 h66.664c6.901,0,12.498-5.598,12.498-12.499C221.465,209.841,215.868,204.239,208.967,204.239z"/> </g> </g>
</svg>